_Griffith_Gothic-Condensed_Bold_WebTT.ufo
<glyph name="numbersign" format="1">
  <advance width="1019.904"/>
  <unicode hex="0023"/>
  <outline>
    <contour>
      <point x="981" y="1106" type="line"/>
      <point x="981" y="930" type="line"/>
      <point x="780" y="930" type="line"/>
      <point x="731" y="553" type="line"/>
      <point x="924" y="553" type="line"/>
      <point x="924" y="379" type="line"/>
      <point x="707" y="379" type="line"/>
      <point x="655" y="0" type="line"/>
      <point x="555" y="0" type="line"/>
      <point x="604" y="379" type="line"/>
      <point x="326" y="379" type="line"/>
      <point x="274" y="0" type="line"/>
      <point x="172" y="0" type="line"/>
      <point x="223" y="379" type="line"/>
      <point x="45" y="379" type="line"/>
      <point x="45" y="553" type="line"/>
      <point x="248" y="553" type="line"/>
      <point x="297" y="930" type="line"/>
      <point x="102" y="930" type="line"/>
      <point x="102" y="1106" type="line"/>
      <point x="322" y="1106" type="line"/>
      <point x="371" y="1475" type="line"/>
      <point x="471" y="1475" type="line"/>
      <point x="422" y="1106" type="line"/>
      <point x="702" y="1106" type="line"/>
      <point x="752" y="1475" type="line"/>
      <point x="854" y="1475" type="line"/>
      <point x="805" y="1106" type="line"/>
    </contour>
    <contour>
      <point x="631" y="551" type="line"/>
      <point x="682" y="932" type="line"/>
      <point x="397" y="932" type="line"/>
      <point x="346" y="551" type="line"/>
    </contour>
  </outline>
</glyph>
<glyph name="dollar" format="1">
  <advance width="909.312"/>
  <unicode hex="0024"/>
  <outline>
    <contour>
      <point x="504" y="831" type="line"/>
      <point x="690.567164179" y="750.402985075"/>
      <point x="866.0" y="545.985074627"/>
      <point x="866" y="393" type="qcurve" smooth="yes"/>
      <point x="866.0" y="216.134328358"/>
      <point x="663.014925373" y="12.9253731343"/>
      <point x="516" y="-2" type="qcurve"/>
      <point x="516" y="-195" type="line"/>
      <point x="406" y="-195" type="line"/>
      <point x="406" y="-2" type="line"/>
      <point x="300.029850746" y="8.44776119403"/>
      <point x="111.626865672" y="115.268656716"/>
      <point x="37" y="219" type="qcurve"/>
      <point x="156" y="336" type="line"/>
      <point x="211.970149254" y="256.149253731"/>
      <point x="342.119402985" y="164.955223881"/>
      <point x="416" y="156" type="qcurve"/>
      <point x="416" y="680" type="line"/>
      <point x="274.955223881" y="742.686567164"/>
      <point x="68.0" y="930.865671642"/>
      <point x="68" y="1104" type="qcurve" smooth="yes"/>
      <point x="68.0" y="1259.97014925"/>
      <point x="254.507462687" y="1466.31343284"/>
      <point x="406" y="1479" type="qcurve"/>
      <point x="406" y="1561" type="line"/>
      <point x="514" y="1561" type="line"/>
      <point x="514" y="1479" type="line"/>
      <point x="616.23880597" y="1466.31343284"/>
      <point x="774.835820896" y="1368.29850746"/>
      <point x="842" y="1278" type="qcurve"/>
      <point x="717" y="1163" type="line"/>
      <point x="664.76119403" y="1233.14925373"/>
      <point x="560.71641791" y="1310.04477612"/>
      <point x="504" y="1319" type="qcurve"/>
    </contour>
    <contour>
      <point x="244" y="1118" type="qcurve" smooth="yes"/>
      <point x="244.0" y="1034.41791045"/>
      <point x="327.194029851" y="913.28358209"/>
      <point x="416" y="870" type="qcurve"/>
      <point x="416" y="1327" type="line"/>
      <point x="336.149253731" y="1319.53731343"/>
      <point x="244.0" y="1203.82089552"/>
    </contour>
    <contour>
      <point x="504" y="150" type="line"/>
      <point x="586.089552239" y="160.447761194"/>
      <point x="682.0" y="273.746268657"/>
      <point x="682" y="373" type="qcurve" smooth="yes"/>
      <point x="682.0" y="463.298507463"/>
      <point x="606.23880597" y="587.268656716"/>
      <point x="504" y="641" type="qcurve"/>
    </contour>
  </outline>
</glyph>
<glyph name="percent" format="1">
  <advance width="1335.296"/>
  <unicode hex="0025"/>
  <outline>
    <contour>
      <point x="336" y="1489" type="qcurve" smooth="yes"/>
      <point x="459.880597015" y="1489.0"/>
      <point x="627.0" y="1290.53731343"/>
      <point x="627" y="1098" type="qcurve" smooth="yes"/>
      <point x="627.0" y="909.940298507"/>
      <point x="457.373134328" y="707.0"/>
      <point x="332" y="707" type="qcurve" smooth="yes"/>
      <point x="208.119402985" y="707.0"/>
      <point x="45.0" y="906.955223881"/>
      <point x="45" y="1098" type="qcurve" smooth="yes"/>
      <point x="45.0" y="1289.04477612"/>
      <point x="210.626865672" y="1489.0"/>
    </contour>
    <contour>
      <point x="334" y="844" type="qcurve" smooth="yes"/>
      <point x="402.656716418" y="844.0"/>
      <point x="469.0" y="979.582089552"/>
      <point x="469" y="1096" type="qcurve" smooth="yes"/>
      <point x="469.0" y="1213.1641791"/>
      <point x="404.149253731" y="1350.0"/>
      <point x="334" y="1350" type="qcurve" smooth="yes"/>
      <point x="265.343283582" y="1350.0"/>
      <point x="203.0" y="1215.67164179"/>
      <point x="203" y="1100" type="qcurve" smooth="yes"/>
      <point x="203.0" y="983.582089552"/>
      <point x="265.343283582" y="844.0"/>
    </contour>
    <contour>
      <point x="999" y="768" type="qcurve" smooth="yes"/>
      <point x="1124.37313433" y="768.0"/>
      <point x="1290.0" y="570.044776119"/>
      <point x="1290" y="379" type="qcurve" smooth="yes"/>
      <point x="1290.0" y="187.955223881"/>
      <point x="1120.88059701" y="-14.0"/>
      <point x="997" y="-14" type="qcurve" smooth="yes"/>
      <point x="871.626865672" y="-14.0"/>
      <point x="709.0" y="186.462686567"/>
      <point x="709" y="379" type="qcurve" smooth="yes"/>
      <point x="709.0" y="567.059701493"/>
      <point x="875.865671642" y="768.0"/>
    </contour>
    <contour>
      <point x="997" y="125" type="qcurve" smooth="yes"/>
      <point x="1066.40298507" y="125.0"/>
      <point x="1133.0" y="260.582089552"/>
      <point x="1133" y="377" type="qcurve" smooth="yes"/>
      <point x="1133.0" y="494.910447761"/>
      <point x="1067.89552239" y="631.0"/>
      <point x="997" y="631" type="qcurve" smooth="yes"/>
      <point x="929.835820896" y="631.0"/>
      <point x="866.0" y="497.417910448"/>
      <point x="866" y="381" type="qcurve" smooth="yes"/>
      <point x="866.0" y="264.582089552"/>
      <point x="928.343283582" y="125.0"/>
    </contour>
    <contour>
      <point x="946" y="1475" type="line"/>
      <point x="1112" y="1475" type="line"/>
      <point x="711" y="715" type="line"/>
      <point x="391" y="2" type="line"/>
      <point x="223" y="2" type="line"/>
      <point x="625" y="762" type="line"/>
    </contour>
  </outline>
</glyph>
<glyph name="parenright" format="1">
  <advance width="561.152"/>
  <unicode hex="0029"/>
  <outline>
    <contour>
      <point x="195" y="1505" type="line"/>
      <point x="309.179104478" y="1357.23880597"/>
      <point x="481.0" y="937.835820896"/>
      <point x="481" y="655" type="qcurve" smooth="yes"/>
      <point x="481.0" y="372.164179104"/>
      <point x="309.179104478" y="-46.4925373134"/>
      <point x="195" y="-195" type="qcurve"/>
      <point x="37" y="-195" type="line"/>
      <point x="160.880597015" y="-6.94029850746"/>
      <point x="289.0" y="409.47761194"/>
      <point x="289" y="655" type="qcurve" smooth="yes"/>
      <point x="289.0" y="901.268656716"/>
      <point x="160.880597015" y="1316.94029851"/>
      <point x="37" y="1505" type="qcurve"/>
    </contour>
  </outline>
</glyph>
<glyph name="plus" format="1">
  <advance width="970.752"/>
  <unicode hex="002B"/>
  <outline>
    <contour>
      <point x="905" y="809" type="line"/>
      <point x="905" y="645" type="line"/>
      <point x="571" y="645" type="line"/>
      <point x="571" y="264" type="line"/>
      <point x="399" y="264" type="line"/>
      <point x="399" y="645" type="line"/>
      <point x="63" y="645" type="line"/>
      <point x="63" y="809" type="line"/>
      <point x="399" y="809" type="line"/>
      <point x="399" y="1190" type="line"/>
      <point x="571" y="1190" type="line"/>
      <point x="571" y="809" type="line"/>
    </contour>
  </outline>
</glyph>
<glyph name="hyphen" format="1">
  <advance width="514.048"/>
  <unicode hex="002D"/>
  <unicode hex="2010"/>
  <unicode hex="2011"/>
  <outline>
    <contour>
      <point x="469" y="668" type="line"/>
      <point x="469" y="498" type="line"/>
      <point x="57" y="498" type="line"/>
      <point x="57" y="668" type="line"/>
    </contour>
  </outline>
</glyph>
<glyph name="period" format="1">
  <advance width="356.352"/>
  <unicode hex="002E"/>
  <outline>
    <contour>
      <point x="184" y="223" type="qcurve" smooth="yes"/>
      <point x="234.746268657" y="223.0"/>
      <point x="303.0" y="154.746268657"/>
      <point x="303" y="104" type="qcurve" smooth="yes"/>
      <point x="303.0" y="52.5074626866"/>
      <point x="234.746268657" y="-14.0"/>
      <point x="184" y="-14" type="qcurve" smooth="yes"/>
      <point x="134.0" y="-14.0"/>
      <point x="66.0" y="52.5074626866"/>
      <point x="66" y="104" type="qcurve" smooth="yes"/>
      <point x="66.0" y="154.746268657"/>
      <point x="134.0" y="223.0"/>
    </contour>
  </outline>
</glyph>
<glyph name="one" format="1">
  <advance width="710.656"/>
  <unicode hex="0031"/>
  <outline>
    <contour>
      <point x="680" y="137" type="line"/>
      <point x="680" y="0" type="line"/>
      <point x="72" y="0" type="line"/>
      <point x="72" y="137" type="line"/>
      <point x="283" y="137" type="line"/>
      <point x="283" y="1337" type="line"/>
      <point x="53" y="1337" type="line"/>
      <point x="53" y="1475" type="line"/>
      <point x="479" y="1475" type="line"/>
      <point x="479" y="137" type="line"/>
    </contour>
  </outline>
</glyph>
<glyph name="four" format="1">
  <advance width="940.032"/>
  <unicode hex="0034"/>
  <outline>
    <contour>
      <point x="891" y="520" type="line"/>
      <point x="891" y="399" type="line"/>
      <point x="752" y="399" type="line"/>
      <point x="752" y="0" type="line"/>
      <point x="555" y="0" type="line"/>
      <point x="555" y="399" type="line"/>
      <point x="51" y="399" type="line"/>
      <point x="51" y="553" type="line"/>
      <point x="502" y="1475" type="line"/>
      <point x="752" y="1475" type="line"/>
      <point x="752" y="520" type="line"/>
    </contour>
    <contour>
      <point x="184" y="520" type="line"/>
      <point x="555" y="520" type="line"/>
      <point x="555" y="1272" type="line"/>
      <point x="541" y="1272" type="line"/>
      <point x="184" y="539" type="line"/>
    </contour>
  </outline>
</glyph>
<glyph name="seven" format="1">
  <advance width="858.112"/>
  <unicode hex="0037"/>
  <outline>
    <contour>
      <point x="827" y="1475" type="line"/>
      <point x="827" y="1354" type="line"/>
      <point x="663.567164179" y="1081.6119403"/>
      <point x="410.23880597" y="342.537313433"/>
      <point x="358" y="0" type="qcurve"/>
      <point x="154" y="0" type="line"/>
      <point x="202.507462687" y="302.985074627"/>
      <point x="463.567164179" y="1037.08955224"/>
      <point x="627" y="1305" type="qcurve"/>
      <point x="33" y="1305" type="line"/>
      <point x="33" y="1475" type="line"/>
    </contour>
  </outline>
</glyph>
<glyph name="nine" format="1">
  <advance width="944.128"/>
  <unicode hex="0039"/>
  <outline>
    <contour>
      <point x="469" y="1499" type="qcurve" smooth="yes"/>
      <point x="660.044776119" y="1499.0"/>
      <point x="881.0" y="1226.89552239"/>
      <point x="881" y="956" type="qcurve" smooth="yes"/>
      <point x="881.0" y="679.880597015"/>
      <point x="674.865671642" y="198.507462687"/>
      <point x="498" y="0" type="qcurve"/>
      <point x="246" y="0" type="line"/>
      <point x="419.880597015" y="166.417910448"/>
      <point x="639.910447761" y="540.537313433"/>
      <point x="672" y="698" type="qcurve"/>
      <point x="664" y="698" type="line"/>
      <point x="620.71641791" y="632.328358209"/>
      <point x="494.76119403" y="541.0"/>
      <point x="397" y="541" type="qcurve" smooth="yes"/>
      <point x="249.23880597" y="541.0"/>
      <point x="43.0" y="774.373134328"/>
      <point x="43" y="999" type="qcurve" smooth="yes"/>
      <point x="43.0" y="1233.32835821"/>
      <point x="277.955223881" y="1499.0"/>
    </contour>
    <contour>
      <point x="455" y="688" type="qcurve" smooth="yes"/>
      <point x="563.208955224" y="688.0"/>
      <point x="676.0" y="879.671641791"/>
      <point x="676" y="1014" type="qcurve" smooth="yes"/>
      <point x="676.0" y="1160.26865672"/>
      <point x="569.71641791" y="1350.0"/>
      <point x="463" y="1350" type="qcurve" smooth="yes"/>
      <point x="355.537313433" y="1350.0"/>
      <point x="248.0" y="1160.26865672"/>
      <point x="248" y="1014" type="qcurve" smooth="yes"/>
      <point x="248.0" y="868.47761194"/>
      <point x="347.537313433" y="688.0"/>
    </contour>
  </outline>
</glyph>
<glyph name="colon" format="1">
  <advance width="401.408"/>
  <unicode hex="003A"/>
  <outline>
    <contour>
      <point x="201" y="223" type="qcurve" smooth="yes"/>
      <point x="251.0" y="223.0"/>
      <point x="319.0" y="154.746268657"/>
      <point x="319" y="104" type="qcurve" smooth="yes"/>
      <point x="319.0" y="52.5074626866"/>
      <point x="251.0" y="-14.0"/>
      <point x="201" y="-14" type="qcurve" smooth="yes"/>
      <point x="150.253731343" y="-14.0"/>
      <point x="82.0" y="52.5074626866"/>
      <point x="82" y="104" type="qcurve" smooth="yes"/>
      <point x="82.0" y="154.746268657"/>
      <point x="150.253731343" y="223.0"/>
    </contour>
    <contour>
      <point x="201" y="1085" type="qcurve" smooth="yes"/>
      <point x="251.0" y="1085.0"/>
      <point x="319.0" y="1017.0"/>
      <point x="319" y="967" type="qcurve" smooth="yes"/>
      <point x="319.0" y="914.76119403"/>
      <point x="251.0" y="848.0"/>
      <point x="201" y="848" type="qcurve" smooth="yes"/>
      <point x="150.253731343" y="848.0"/>
      <point x="82.0" y="914.76119403"/>
      <point x="82" y="967" type="qcurve" smooth="yes"/>
      <point x="82.0" y="1017.0"/>
      <point x="150.253731343" y="1085.0"/>
    </contour>
  </outline>
</glyph>
<glyph name="less" format="1">
  <advance width="968.704"/>
  <unicode hex="003C"/>
  <outline>
    <contour>
      <point x="889" y="432" type="line"/>
      <point x="889" y="244" type="line"/>
      <point x="68" y="639" type="line"/>
      <point x="68" y="811" type="line"/>
      <point x="889" y="1208" type="line"/>
      <point x="889" y="1020" type="line"/>
      <point x="242" y="725" type="line"/>
    </contour>
  </outline>
</glyph>
<glyph name="greater" format="1">
  <advance width="968.704"/>
  <unicode hex="003E"/>
  <outline>
    <contour>
      <point x="901" y="813" type="line"/>
      <point x="901" y="641" type="line"/>
      <point x="78" y="246" type="line"/>
      <point x="78" y="434" type="line"/>
      <point x="727" y="729" type="line"/>
      <point x="78" y="1022" type="line"/>
      <point x="78" y="1210" type="line"/>
    </contour>
  </outline>
</glyph>
<glyph name="question" format="1">
  <advance width="788.48"/>
  <unicode hex="003F"/>
  <outline>
    <contour>
      <point x="397" y="1499" type="qcurve" smooth="yes"/>
      <point x="555.955223881" y="1499.0"/>
      <point x="731.0" y="1301.95522388"/>
      <point x="731" y="1143" type="qcurve" smooth="yes"/>
      <point x="731.0" y="1007.17910448"/>
      <point x="638.791044776" y="843.0"/>
      <point x="547" y="743" type="qcurve" smooth="yes"/>
      <point x="478.343283582" y="668.373134328"/>
      <point x="422.985074627" y="537.373134328"/>
      <point x="420" y="412" type="qcurve"/>
      <point x="305" y="412" type="line"/>
      <point x="288.582089552" y="582.895522388"/>
      <point x="335.194029851" y="761.76119403"/>
      <point x="424" y="864" type="qcurve" smooth="yes"/>
      <point x="483.701492537" y="934.149253731"/>
      <point x="537.0" y="1058.13432836"/>
      <point x="537" y="1135" type="qcurve" smooth="yes"/>
      <point x="537.0" y="1228.28358209"/>
      <point x="457.656716418" y="1339.0"/>
      <point x="389" y="1339" type="qcurve" smooth="yes"/>
      <point x="318.850746269" y="1339.0"/>
      <point x="228.582089552" y="1227.85074627"/>
      <point x="195" y="1098" type="qcurve"/>
      <point x="29" y="1155" type="line"/>
      <point x="64.0746268657" y="1319.92537313"/>
      <point x="241.029850746" y="1499.0"/>
    </contour>
    <contour>
      <point x="365" y="223" type="qcurve" smooth="yes"/>
      <point x="415.0" y="223.0"/>
      <point x="483.0" y="154.746268657"/>
      <point x="483" y="104" type="qcurve" smooth="yes"/>
      <point x="483.0" y="52.5074626866"/>
      <point x="415.0" y="-14.0"/>
      <point x="365" y="-14" type="qcurve" smooth="yes"/>
      <point x="314.253731343" y="-14.0"/>
      <point x="246.0" y="52.5074626866"/>
      <point x="246" y="104" type="qcurve" smooth="yes"/>
      <point x="246.0" y="154.746268657"/>
      <point x="314.253731343" y="223.0"/>
    </contour>
  </outline>
</glyph>
<glyph name="at" format="1">
  <advance width="1595.392"/>
  <unicode hex="0040"/>
  <outline>
    <contour>
      <point x="827" y="1499" type="qcurve" smooth="yes"/>
      <point x="1115.80597015" y="1499.0"/>
      <point x="1511.0" y="1071.04477612"/>
      <point x="1511" y="680" type="qcurve" smooth="yes"/>
      <point x="1511.0" y="378.507462687"/>
      <point x="1279.26865672" y="57.0"/>
      <point x="1133" y="57" type="qcurve" smooth="yes"/>
      <point x="1033.0" y="57.0"/>
      <point x="903.47761194" y="176.074626866"/>
      <point x="899" y="291" type="qcurve"/>
      <point x="891" y="291" type="line"/>
      <point x="835.776119403" y="177.567164179"/>
      <point x="700.328358209" y="57.0"/>
      <point x="616" y="57" type="qcurve" smooth="yes"/>
      <point x="530.925373134" y="57.0"/>
      <point x="418.0" y="213.537313433"/>
      <point x="418" y="371" type="qcurve" smooth="yes"/>
      <point x="418.0" y="642.641791045"/>
      <point x="618.985074627" y="1057.0"/>
      <point x="766" y="1057" type="qcurve" smooth="yes"/>
      <point x="853.313432836" y="1057.0"/>
      <point x="942.850746269" y="927.0"/>
      <point x="963" y="827" type="qcurve"/>
      <point x="969" y="825" type="line"/>
      <point x="1012" y="1055" type="line"/>
      <point x="1169" y="1014" type="line"/>
      <point x="1053" y="383" type="line" smooth="yes"/>
      <point x="1032.85074627" y="274.791044776"/>
      <point x="1097.13432836" y="137.0"/>
      <point x="1174" y="137" type="qcurve" smooth="yes"/>
      <point x="1279.2238806" y="137.0"/>
      <point x="1440.0" y="439.194029851"/>
      <point x="1440" y="678" type="qcurve" smooth="yes"/>
      <point x="1440.0" y="1028.0"/>
      <point x="1104.34328358" y="1436.0"/>
      <point x="823" y="1436" type="qcurve" smooth="yes"/>
      <point x="534.194029851" y="1436.0"/>
      <point x="145.0" y="936.044776119"/>
      <point x="145" y="545" type="qcurve" smooth="yes"/>
      <point x="145.0" y="139.776119403"/>
      <point x="503.029850746" y="-330.0"/>
      <point x="809" y="-330" type="qcurve" smooth="yes"/>
      <point x="956.014925373" y="-330.0"/>
      <point x="1181.28358209" y="-245.611940299"/>
      <point x="1288" y="-168" type="qcurve"/>
      <point x="1321" y="-225" type="line"/>
      <point x="1207.56716418" y="-304.850746269"/>
      <point x="962.462686567" y="-393.0"/>
      <point x="805" y="-393" type="qcurve" smooth="yes"/>
      <point x="472.910447761" y="-393.0"/>
      <point x="74.0" y="102.701492537"/>
      <point x="74" y="543" type="qcurve" smooth="yes"/>
      <point x="74.0" y="973.597014925"/>
      <point x="515.805970149" y="1499.0"/>
    </contour>
    <contour>
      <point x="692" y="178" type="qcurve" smooth="yes"/>
      <point x="779.313432836" y="178.0"/>
      <point x="933.52238806" y="492.417910448"/>
      <point x="938" y="676" type="qcurve" smooth="yes"/>
      <point x="939.492537313" y="766.298507463"/>
      <point x="873.686567164" y="924.0"/>
      <point x="811" y="924" type="qcurve" smooth="yes"/>
      <point x="717.71641791" y="924.0"/>
      <point x="584.0" y="593.208955224"/>
      <point x="584" y="385" type="qcurve" smooth="yes"/>
      <point x="584.0" y="291.71641791"/>
      <point x="639.014925373" y="178.0"/>
    </contour>
  </outline>
</glyph>
<glyph name="A" format="1">
  <advance width="1103.872"/>
  <unicode hex="0041"/>
  <outline>
    <contour>
      <point x="694" y="1483" type="line"/>
      <point x="1071" y="0" type="line"/>
      <point x="856" y="0" type="line"/>
      <point x="770" y="365" type="line"/>
      <point x="324" y="365" type="line"/>
      <point x="238" y="0" type="line"/>
      <point x="33" y="0" type="line"/>
      <point x="410" y="1483" type="line"/>
    </contour>
    <contour>
      <point x="352" y="516" type="line"/>
      <point x="743" y="516" type="line"/>
      <point x="553" y="1298" type="line"/>
      <point x="543" y="1298" type="line"/>
    </contour>
  </outline>
</glyph>
<glyph name="E" format="1">
  <advance width="874.496"/>
  <unicode hex="0045"/>
  <outline>
    <contour>
      <point x="825" y="168" type="line"/>
      <point x="825" y="0" type="line"/>
      <point x="111" y="0" type="line"/>
      <point x="111" y="1475" type="line"/>
      <point x="807" y="1475" type="line"/>
      <point x="807" y="1307" type="line"/>
      <point x="315" y="1307" type="line"/>
      <point x="315" y="848" type="line"/>
      <point x="702" y="848" type="line"/>
      <point x="702" y="688" type="line"/>
      <point x="315" y="688" type="line"/>
      <point x="315" y="168" type="line"/>
    </contour>
  </outline>
</glyph>
<glyph name="G" format="1">
  <advance width="1015.808"/>
  <unicode hex="0047"/>
  <outline>
    <contour>
      <point x="936" y="684" type="line"/>
      <point x="936" y="0" type="line"/>
      <point x="854" y="0" type="line"/>
      <point x="831" y="369" type="line"/>
      <point x="825" y="369" type="line"/>
      <point x="786.940298507" y="189.895522388"/>
      <point x="627.0" y="-25.0"/>
      <point x="477" y="-25" type="qcurve" smooth="yes"/>
      <point x="291.925373134" y="-25.0"/>
      <point x="72.0" y="326.552238806"/>
      <point x="72" y="637" type="qcurve" smooth="yes"/>
      <point x="72" y="838" type="line" smooth="yes"/>
      <point x="72.0" y="1152.92537313"/>
      <point x="310.955223881" y="1499.0"/>
      <point x="502" y="1499" type="qcurve" smooth="yes"/>
      <point x="688.567164179" y="1499.0"/>
      <point x="871.417910448" y="1267.02985075"/>
      <point x="905" y="1073" type="qcurve"/>
      <point x="711" y="1020" type="line"/>
      <point x="687.865671642" y="1177.46268657"/>
      <point x="592.298507463" y="1339.0"/>
      <point x="502" y="1339" type="qcurve" smooth="yes"/>
      <point x="390.059701493" y="1339.0"/>
      <point x="283.0" y="1071.70149254"/>
      <point x="283" y="862" type="qcurve" smooth="yes"/>
      <point x="283" y="618" type="line" smooth="yes"/>
      <point x="283.0" y="398.597014925"/>
      <point x="395.044776119" y="135.0"/>
      <point x="504" y="135" type="qcurve" smooth="yes"/>
      <point x="609.223880597" y="135.0"/>
      <point x="713.059701493" y="364.895522388"/>
      <point x="725" y="594" type="qcurve"/>
      <point x="520" y="594" type="line"/>
      <point x="520" y="684" type="line"/>
    </contour>
  </outline>
</glyph>
<glyph name="P" format="1">
  <advance width="931.84"/>
  <unicode hex="0050"/>
  <outline>
    <contour>
      <point x="428" y="1475" type="line" smooth="yes"/>
      <point x="643.671641791" y="1475.0"/>
      <point x="887.0" y="1254.17910448"/>
      <point x="887" y="1040" type="qcurve" smooth="yes"/>
      <point x="887.0" y="819.850746269"/>
      <point x="644.656716418" y="588.0"/>
      <point x="426" y="588" type="qcurve" smooth="yes"/>
      <point x="317" y="588" type="line"/>
      <point x="317" y="0" type="line"/>
      <point x="111" y="0" type="line"/>
      <point x="111" y="1475" type="line"/>
    </contour>
    <contour>
      <point x="438" y="745" type="line" smooth="yes"/>
      <point x="561.880597015" y="745.0"/>
      <point x="686.0" y="893.701492537"/>
      <point x="686" y="1034" type="qcurve" smooth="yes"/>
      <point x="686.0" y="1172.05970149"/>
      <point x="559.373134328" y="1319.0"/>
      <point x="434" y="1319" type="qcurve" smooth="yes"/>
      <point x="315" y="1319" type="line"/>
      <point x="315" y="745" type="line"/>
    </contour>
  </outline>
</glyph>
<glyph name="Q" format="1">
  <advance width="1017.856"/>
  <unicode hex="0051"/>
  <outline>
    <contour>
      <point x="1012" y="-88" type="qcurve"/>
      <point x="1012" y="-217" type="line"/>
      <point x="994.835820896" y="-222.970149254"/>
      <point x="956.656716418" y="-227.0"/>
      <point x="938" y="-227" type="qcurve" smooth="yes"/>
      <point x="866.358208955" y="-227.0"/>
      <point x="776.28358209" y="-168.358208955"/>
      <point x="733" y="-90" type="qcurve" smooth="yes"/>
      <point x="676" y="14" type="line"/>
      <point x="639.432835821" y="-5.40298507463"/>
      <point x="554.029850746" y="-25.0"/>
      <point x="510" y="-25" type="qcurve" smooth="yes"/>
      <point x="308.507462687" y="-25.0"/>
      <point x="72.0" y="320.074626866"/>
      <point x="72" y="635" type="qcurve" smooth="yes"/>
      <point x="72" y="838" type="line" smooth="yes"/>
      <point x="72.0" y="1152.92537313"/>
      <point x="308.507462687" y="1499.0"/>
      <point x="510" y="1499" type="qcurve" smooth="yes"/>
      <point x="710.0" y="1499.0"/>
      <point x="948.0" y="1154.92537313"/>
      <point x="948" y="840" type="qcurve" smooth="yes"/>
      <point x="948" y="637" type="line" smooth="yes"/>
      <point x="948.0" y="445.955223881"/>
      <point x="857.343283582" y="166.835820896"/>
      <point x="776" y="84" type="qcurve"/>
      <point x="842" y="-25" type="line" smooth="yes"/>
      <point x="865.880597015" y="-64.552238806"/>
      <point x="913.940298507" y="-98.0"/>
      <point x="952" y="-98" type="qcurve" smooth="yes"/>
      <point x="966.179104478" y="-98.0"/>
      <point x="994.835820896" y="-92.4776119403"/>
    </contour>
    <contour>
      <point x="676" y="225" type="line"/>
      <point x="709.582089552" y="280.223880597"/>
      <point x="743.0" y="437.0"/>
      <point x="743" y="537" type="qcurve" smooth="yes"/>
      <point x="743" y="881" type="line" smooth="yes"/>
      <point x="743.0" y="1079.50746269"/>
      <point x="631.402985075" y="1343.0"/>
      <point x="512" y="1343" type="qcurve" smooth="yes"/>
      <point x="392.597014925" y="1343.0"/>
      <point x="283.0" y="1081.50746269"/>
      <point x="283" y="883" type="qcurve" smooth="yes"/>
      <point x="283" y="588" type="line" smooth="yes"/>
      <point x="283.0" y="387.253731343"/>
      <point x="392.597014925" y="125.0"/>
      <point x="512" y="125" type="qcurve" smooth="yes"/>
      <point x="541.104477612" y="125.0"/>
      <point x="591.104477612" y="140.328358209"/>
      <point x="612" y="156" type="qcurve"/>
      <point x="469" y="424" type="line"/>
      <point x="541" y="467" type="line"/>
    </contour>
  </outline>
</glyph>
<glyph name="S" format="1">
  <advance width="940.032"/>
  <unicode hex="0053"/>
  <outline>
    <contour>
      <point x="528" y="852" type="qcurve" smooth="yes"/>
      <point x="725.76119403" y="769.164179104"/>
      <point x="881.0" y="556.402985075"/>
      <point x="881" y="387" type="qcurve" smooth="yes"/>
      <point x="881.0" y="189.985074627"/>
      <point x="650.164179104" y="-23.0"/>
      <point x="483" y="-23" type="qcurve" smooth="yes"/>
      <point x="324.044776119" y="-23.0"/>
      <point x="121.179104478" y="134.552238806"/>
      <point x="57" y="295" type="qcurve"/>
      <point x="201" y="403" type="line"/>
      <point x="251.0" y="267.179104478"/>
      <point x="392.731343284" y="143.0"/>
      <point x="489" y="143" type="qcurve" smooth="yes"/>
      <point x="574.820895522" y="143.0"/>
      <point x="688.0" y="263.029850746"/>
      <point x="688" y="369" type="qcurve" smooth="yes"/>
      <point x="688.0" y="468.253731343"/>
      <point x="575.52238806" y="601.313432836"/>
      <point x="430" y="664" type="qcurve" smooth="yes"/>
      <point x="244.925373134" y="741.611940299"/>
      <point x="88.0" y="944.597014925"/>
      <point x="88" y="1114" type="qcurve" smooth="yes"/>
      <point x="88.0" y="1269.97014925"/>
      <point x="286.850746269" y="1497.0"/>
      <point x="457" y="1497" type="qcurve" smooth="yes"/>
      <point x="603.268656716" y="1497.0"/>
      <point x="790.298507463" y="1356.82089552"/>
      <point x="850" y="1221" type="qcurve"/>
      <point x="707" y="1112" type="line"/>
      <point x="656.253731343" y="1223.94029851"/>
      <point x="538.074626866" y="1331.0"/>
      <point x="453" y="1331" type="qcurve" smooth="yes"/>
      <point x="367.179104478" y="1331.0"/>
      <point x="279.0" y="1207.62686567"/>
      <point x="279" y="1133" type="qcurve" smooth="yes"/>
      <point x="279.0" y="1039.71641791"/>
      <point x="381.731343284" y="914.686567164"/>
    </contour>
  </outline>
</glyph>
<glyph name="X" format="1">
  <advance width="1032.192"/>
  <unicode hex="0058"/>
  <outline>
    <contour>
      <point x="639" y="764" type="line"/>
      <point x="995" y="0" type="line"/>
      <point x="764" y="0" type="line"/>
      <point x="506" y="586" type="line"/>
      <point x="238" y="0" type="line"/>
      <point x="37" y="0" type="line"/>
      <point x="393" y="756" type="line"/>
      <point x="59" y="1475" type="line"/>
      <point x="291" y="1475" type="line"/>
      <point x="528" y="934" type="line"/>
      <point x="772" y="1475" type="line"/>
      <point x="973" y="1475" type="line"/>
    </contour>
  </outline>
</glyph>
<glyph name="Z" format="1">
  <advance width="897.024"/>
  <unicode hex="005A"/>
  <outline>
    <contour>
      <point x="848" y="168" type="line"/>
      <point x="848" y="0" type="line"/>
      <point x="47" y="0" type="line"/>
      <point x="47" y="145" type="line"/>
      <point x="616" y="1307" type="line"/>
      <point x="76" y="1307" type="line"/>
      <point x="76" y="1475" type="line"/>
      <point x="848" y="1475" type="line"/>
      <point x="848" y="1329" type="line"/>
      <point x="281" y="168" type="line"/>
    </contour>
  </outline>
</glyph>
<glyph name="backslash" format="1">
  <advance width="665.6"/>
  <unicode hex="005C"/>
  <outline>
    <contour>
      <point x="190" y="1505" type="line"/>
      <point x="690" y="-195" type="line"/>
      <point x="522" y="-195" type="line"/>
      <point x="20" y="1505" type="line"/>
    </contour>
  </outline>
</glyph>
<glyph name="asciicircum" format="1">
  <advance width="841.728"/>
  <unicode hex="005E"/>
  <outline>
    <contour>
      <point x="510" y="1483" type="line"/>
      <point x="780" y="913" type="line"/>
      <point x="653" y="913" type="line"/>
      <point x="422" y="1288" type="line"/>
      <point x="190" y="913" type="line"/>
      <point x="61" y="913" type="line"/>
      <point x="334" y="1483" type="line"/>
    </contour>
  </outline>
</glyph>
<glyph name="underscore" format="1">
  <advance width="817.152"/>
  <unicode hex="005F"/>
  <outline>
    <contour>
      <point x="823" y="-94" type="line"/>
      <point x="823" y="-190" type="line"/>
      <point x="-6" y="-190" type="line"/>
      <point x="-6" y="-94" type="line"/>
    </contour>
  </outline>
</glyph>
<glyph name="a" format="1">
  <advance width="829.44"/>
  <unicode hex="0061"/>
  <outline>
    <contour>
      <point x="801" y="86" type="qcurve"/>
      <point x="801" y="-8" type="line"/>
      <point x="689.059701493" y="-8.0"/>
      <point x="559.895522388" y="81.6119402985"/>
      <point x="539" y="154" type="qcurve"/>
      <point x="530" y="154" type="line"/>
      <point x="488.955223881" y="86.0895522388"/>
      <point x="364.074626866" y="-14.0"/>
      <point x="279" y="-14" type="qcurve" smooth="yes"/>
      <point x="174.52238806" y="-14.0"/>
      <point x="41.0" y="132.656716418"/>
      <point x="41" y="264" type="qcurve" smooth="yes"/>
      <point x="41.0" y="415.492537313"/>
      <point x="280.47761194" y="619.358208955"/>
      <point x="526" y="641" type="qcurve"/>
      <point x="526" y="772" type="line" smooth="yes"/>
      <point x="526.0" y="856.328358209"/>
      <point x="463.686567164" y="938.0"/>
      <point x="401" y="938" type="qcurve" smooth="yes"/>
      <point x="345.029850746" y="938.0"/>
      <point x="226.626865672" y="893.52238806"/>
      <point x="152" y="848" type="qcurve"/>
      <point x="94" y="973" type="line"/>
      <point x="175.343283582" y="1021.50746269"/>
      <point x="352.52238806" y="1085.0"/>
      <point x="457" y="1085" type="qcurve" smooth="yes"/>
      <point x="595.805970149" y="1085.0"/>
      <point x="721.0" y="941.970149254"/>
      <point x="721" y="786" type="qcurve" smooth="yes"/>
      <point x="721" y="207" type="line" smooth="yes"/>
      <point x="721.0" y="150.28358209"/>
      <point x="757.71641791" y="90.4776119403"/>
    </contour>
    <contour>
      <point x="367" y="117" type="qcurve" smooth="yes"/>
      <point x="411.029850746" y="117.0"/>
      <point x="492.417910448" y="177.313432836"/>
      <point x="526" y="240" type="qcurve"/>
      <point x="526" y="551" type="line"/>
      <point x="364.059701493" y="530.850746269"/>
      <point x="227.0" y="382.28358209"/>
      <point x="227" y="289" type="qcurve" smooth="yes"/>
      <point x="227.0" y="207.656716418"/>
      <point x="304.313432836" y="117.0"/>
    </contour>
  </outline>
</glyph>
<glyph name="k" format="1">
  <advance width="829.44"/>
  <unicode hex="006B"/>
  <outline>
    <contour>
      <point x="512" y="549" type="line"/>
      <point x="825" y="0" type="line"/>
      <point x="610" y="0" type="line"/>
      <point x="315" y="539" type="line"/>
      <point x="315" y="545" type="line"/>
      <point x="604" y="1073" type="line"/>
      <point x="813" y="1073" type="line"/>
    </contour>
    <contour>
      <point x="291" y="1554" type="line"/>
      <point x="291" y="0" type="line"/>
      <point x="92" y="0" type="line"/>
      <point x="92" y="1509" type="line"/>
    </contour>
  </outline>
</glyph>
<glyph name="l" format="1">
  <advance width="403.456"/>
  <unicode hex="006C"/>
  <outline>
    <contour>
      <point x="301" y="1554" type="line"/>
      <point x="301" y="0" type="line"/>
      <point x="102" y="0" type="line"/>
      <point x="102" y="1509" type="line"/>
    </contour>
  </outline>
</glyph>
<glyph name="m" format="1">
  <advance width="1300.48"/>
  <unicode hex="006D"/>
  <outline>
    <contour>
      <point x="1212" y="854" type="qcurve" smooth="yes"/>
      <point x="1212" y="0" type="line"/>
      <point x="1016" y="0" type="line"/>
      <point x="1016" y="809" type="line" smooth="yes"/>
      <point x="1016.0" y="870.194029851"/>
      <point x="975.52238806" y="932.0"/>
      <point x="930" y="932" type="qcurve" smooth="yes"/>
      <point x="886.71641791" y="932.0"/>
      <point x="794.537313433" y="855.343283582"/>
      <point x="752" y="774" type="qcurve"/>
      <point x="752" y="0" type="line"/>
      <point x="555" y="0" type="line"/>
      <point x="555" y="809" type="line" smooth="yes"/>
      <point x="555.0" y="870.194029851"/>
      <point x="513.029850746" y="932.0"/>
      <point x="469" y="932" type="qcurve" smooth="yes"/>
      <point x="424.970149254" y="932.0"/>
      <point x="333.029850746" y="855.343283582"/>
      <point x="289" y="774" type="qcurve"/>
      <point x="289" y="0" type="line"/>
      <point x="92" y="0" type="line"/>
      <point x="92" y="1047" type="line"/>
      <point x="289" y="1092" type="line"/>
      <point x="289" y="872" type="line"/>
      <point x="295" y="872" type="line"/>
      <point x="362.164179104" y="974.985074627"/>
      <point x="488.910447761" y="1085.0"/>
      <point x="571" y="1085" type="qcurve" smooth="yes"/>
      <point x="656.820895522" y="1085.0"/>
      <point x="750.0" y="974.791044776"/>
      <point x="750" y="883" type="qcurve" smooth="yes"/>
      <point x="750" y="872" type="line"/>
      <point x="758" y="872" type="line"/>
      <point x="825.164179104" y="974.985074627"/>
      <point x="951.910447761" y="1085.0"/>
      <point x="1034" y="1085" type="qcurve" smooth="yes"/>
      <point x="1122.80597015" y="1085.0"/>
      <point x="1212.0" y="960.71641791"/>
    </contour>
  </outline>
</glyph>
<glyph name="o" format="1">
  <advance width="843.776"/>
  <unicode hex="006F"/>
  <outline>
    <contour>
      <point x="788" y="584" type="qcurve" smooth="yes"/>
      <point x="788" y="492" type="line" smooth="yes"/>
      <point x="788.0" y="262.149253731"/>
      <point x="591.402985075" y="-20.0"/>
      <point x="422" y="-20" type="qcurve" smooth="yes"/>
      <point x="252.597014925" y="-20.0"/>
      <point x="57.0" y="262.149253731"/>
      <point x="57" y="492" type="qcurve" smooth="yes"/>
      <point x="57" y="584" type="line" smooth="yes"/>
      <point x="57.0" y="811.611940299"/>
      <point x="254.597014925" y="1094.0"/>
      <point x="424" y="1094" type="qcurve" smooth="yes"/>
      <point x="593.402985075" y="1094.0"/>
      <point x="788.0" y="811.611940299"/>
    </contour>
    <contour>
      <point x="424" y="113" type="qcurve" smooth="yes"/>
      <point x="503.104477612" y="113.0"/>
      <point x="592.0" y="310.582089552"/>
      <point x="592" y="477" type="qcurve" smooth="yes"/>
      <point x="592" y="596" type="line" smooth="yes"/>
      <point x="592.0" y="762.417910448"/>
      <point x="501.104477612" y="961.0"/>
      <point x="422" y="961" type="qcurve" smooth="yes"/>
      <point x="340.656716418" y="961.0"/>
      <point x="254.0" y="762.417910448"/>
      <point x="254" y="596" type="qcurve" smooth="yes"/>
      <point x="254" y="477" type="line" smooth="yes"/>
      <point x="254.0" y="310.582089552"/>
      <point x="344.149253731" y="113.0"/>
    </contour>
  </outline>
</glyph>
<glyph name="r" format="1">
  <advance width="645.12"/>
  <unicode hex="0072"/>
  <outline>
    <contour>
      <point x="629" y="1092" type="qcurve"/>
      <point x="629" y="874" type="line"/>
      <point x="520.044776119" y="851.611940299"/>
      <point x="355.179104478" y="702.746268657"/>
      <point x="291" y="602" type="qcurve"/>
      <point x="291" y="0" type="line"/>
      <point x="92" y="0" type="line"/>
      <point x="92" y="1047" type="line"/>
      <point x="291" y="1092" type="line"/>
      <point x="291" y="719" type="line"/>
      <point x="301" y="719" type="line"/>
      <point x="382.343283582" y="889.895522388"/>
      <point x="541.686567164" y="1074.8358209"/>
    </contour>
  </outline>
</glyph>
<glyph name="v" format="1">
  <advance width="806.912"/>
  <unicode hex="0076"/>
  <outline>
    <contour>
      <point x="590" y="1073" type="line"/>
      <point x="778" y="1073" type="line"/>
      <point x="520" y="-10" type="line"/>
      <point x="287" y="-10" type="line"/>
      <point x="29" y="1073" type="line"/>
      <point x="229" y="1073" type="line"/>
      <point x="410" y="195" type="line"/>
    </contour>
  </outline>
</glyph>
<glyph name="x" format="1">
  <advance width="833.536"/>
  <unicode hex="0078"/>
  <outline>
    <contour>
      <point x="526" y="551" type="line"/>
      <point x="801" y="0" type="line"/>
      <point x="588" y="0" type="line"/>
      <point x="406" y="387" type="line"/>
      <point x="219" y="0" type="line"/>
      <point x="33" y="0" type="line"/>
      <point x="307" y="541" type="line"/>
      <point x="43" y="1073" type="line"/>
      <point x="256" y="1073" type="line"/>
      <point x="428" y="705" type="line"/>
      <point x="606" y="1073" type="line"/>
      <point x="793" y="1073" type="line"/>
    </contour>
  </outline>
</glyph>
<glyph name="z" format="1">
  <advance width="716.8"/>
  <unicode hex="007A"/>
  <outline>
    <contour>
      <point x="672" y="141" type="line"/>
      <point x="672" y="0" type="line"/>
      <point x="39" y="0" type="line"/>
      <point x="39" y="123" type="line"/>
      <point x="457" y="926" type="line"/>
      <point x="63" y="926" type="line"/>
      <point x="63" y="1067" type="line"/>
      <point x="672" y="1067" type="line"/>
      <point x="672" y="944" type="line"/>
      <point x="254" y="141" type="line"/>
    </contour>
  </outline>
</glyph>
<glyph name="braceleft" format="1">
  <advance width="673.792"/>
  <unicode hex="007B"/>
  <outline>
    <contour>
      <point x="625" y="-68" type="line"/>
      <point x="625" y="-164" type="line"/>
      <point x="455" y="-164" type="line" smooth="yes"/>
      <point x="335.597014925" y="-164.0"/>
      <point x="213.0" y="-36.3582089552"/>
      <point x="213" y="92" type="qcurve" smooth="yes"/>
      <point x="213.0" y="160.656716418"/>
      <point x="244.0" y="337.328358209"/>
      <point x="244" y="403" type="qcurve" smooth="yes"/>
      <point x="244.0" y="511.955223881"/>
      <point x="121.298507463" y="606.0"/>
      <point x="31" y="606" type="qcurve"/>
      <point x="31" y="705" type="line"/>
      <point x="121.298507463" y="705.0"/>
      <point x="244.0" y="798.791044776"/>
      <point x="244" y="907" type="qcurve" smooth="yes"/>
      <point x="244.0" y="972.671641791"/>
      <point x="213.0" y="1149.59701493"/>
      <point x="213" y="1219" type="qcurve" smooth="yes"/>
      <point x="213.0" y="1347.35820896"/>
      <point x="335.597014925" y="1475.0"/>
      <point x="455" y="1475" type="qcurve" smooth="yes"/>
      <point x="625" y="1475" type="line"/>
      <point x="625" y="1378" type="line"/>
      <point x="524" y="1378" type="line" smooth="yes"/>
      <point x="453.850746269" y="1378.0"/>
      <point x="385.0" y="1298.10447761"/>
      <point x="385" y="1219" type="qcurve" smooth="yes"/>
      <point x="385.0" y="1159.29850746"/>
      <point x="418.0" y="990.373134328"/>
      <point x="418" y="915" type="qcurve" smooth="yes"/>
      <point x="418.0" y="797.835820896"/>
      <point x="310.656716418" y="692.358208955"/>
      <point x="242" y="664" type="qcurve"/>
      <point x="242" y="647" type="line"/>
      <point x="310.656716418" y="617.895522388"/>
      <point x="418.0" y="512.910447761"/>
      <point x="418" y="395" type="qcurve" smooth="yes"/>
      <point x="418.0" y="320.373134328"/>
      <point x="385.0" y="151.701492537"/>
      <point x="385" y="92" type="qcurve" smooth="yes"/>
      <point x="385.0" y="12.8955223881"/>
      <point x="453.850746269" y="-68.0"/>
      <point x="524" y="-68" type="qcurve" smooth="yes"/>
    </contour>
  </outline>
</glyph>
<glyph name="bar" format="1">
  <advance width="421.888"/>
  <unicode hex="007C"/>
  <outline>
    <contour>
      <point x="289" y="1561" type="line"/>
      <point x="289" y="-385" type="line"/>
      <point x="133" y="-385" type="line"/>
      <point x="133" y="1561" type="line"/>
    </contour>
  </outline>
</glyph>
<glyph name="braceright" format="1">
  <advance width="673.792"/>
  <unicode hex="007D"/>
  <outline>
    <contour>
      <point x="645" y="705" type="qcurve"/>
      <point x="645" y="606" type="line"/>
      <point x="553.208955224" y="606.0"/>
      <point x="430.0" y="511.955223881"/>
      <point x="430" y="403" type="qcurve" smooth="yes"/>
      <point x="430.0" y="337.328358209"/>
      <point x="463.0" y="160.656716418"/>
      <point x="463" y="92" type="qcurve" smooth="yes"/>
      <point x="463.0" y="-36.3582089552"/>
      <point x="339.895522388" y="-164.0"/>
      <point x="219" y="-164" type="qcurve" smooth="yes"/>
      <point x="49" y="-164" type="line"/>
      <point x="49" y="-68" type="line"/>
      <point x="150" y="-68" type="line" smooth="yes"/>
      <point x="221.641791045" y="-68.0"/>
      <point x="289.0" y="12.8955223881"/>
      <point x="289" y="92" type="qcurve" smooth="yes"/>
      <point x="289.0" y="151.701492537"/>
      <point x="258.0" y="320.373134328"/>
      <point x="258" y="395" type="qcurve" smooth="yes"/>
      <point x="258.0" y="512.910447761"/>
      <point x="365.343283582" y="617.895522388"/>
      <point x="434" y="647" type="qcurve"/>
      <point x="434" y="664" type="line"/>
      <point x="365.343283582" y="692.358208955"/>
      <point x="258.0" y="797.835820896"/>
      <point x="258" y="915" type="qcurve" smooth="yes"/>
      <point x="258.0" y="990.373134328"/>
      <point x="289.0" y="1159.29850746"/>
      <point x="289" y="1219" type="qcurve" smooth="yes"/>
      <point x="289.0" y="1298.10447761"/>
      <point x="221.641791045" y="1378.0"/>
      <point x="150" y="1378" type="qcurve" smooth="yes"/>
      <point x="49" y="1378" type="line"/>
      <point x="49" y="1475" type="line"/>
      <point x="219" y="1475" type="line" smooth="yes"/>
      <point x="339.895522388" y="1475.0"/>
      <point x="463.0" y="1347.35820896"/>
      <point x="463" y="1219" type="qcurve" smooth="yes"/>
      <point x="463.0" y="1149.59701493"/>
      <point x="430.0" y="972.671641791"/>
      <point x="430" y="907" type="qcurve" smooth="yes"/>
      <point x="430.0" y="798.791044776"/>
      <point x="553.208955224" y="705.0"/>
    </contour>
  </outline>
</glyph>
<glyph name="section" format="1">
  <advance width="935.936"/>
  <unicode hex="00A7"/>
  <outline>
    <contour>
      <point x="528" y="1049" type="qcurve" smooth="yes"/>
      <point x="707.104477612" y="986.313432836"/>
      <point x="889.0" y="842.910447761"/>
      <point x="889" y="725" type="qcurve" smooth="yes"/>
      <point x="889.0" y="619.776119403"/>
      <point x="740.164179104" y="485.47761194"/>
      <point x="623" y="481" type="qcurve"/>
      <point x="623" y="471" type="line"/>
      <point x="696.134328358" y="440.402985075"/>
      <point x="803.0" y="324.76119403"/>
      <point x="803" y="227" type="qcurve" smooth="yes"/>
      <point x="803.0" y="114.313432836"/>
      <point x="637.507462687" y="-25.0"/>
      <point x="489" y="-25" type="qcurve" smooth="yes"/>
      <point x="379.298507463" y="-25.0"/>
      <point x="211.358208955" y="31.7611940299"/>
      <point x="133" y="84" type="qcurve"/>
      <point x="203" y="219" type="line"/>
      <point x="273.149253731" y="171.985074627"/>
      <point x="421.104477612" y="121.0"/>
      <point x="492" y="121" type="qcurve" smooth="yes"/>
      <point x="559.164179104" y="121.0"/>
      <point x="635.0" y="181.0"/>
      <point x="635" y="231" type="qcurve" smooth="yes"/>
      <point x="635.0" y="286.223880597"/>
      <point x="546.805970149" y="378.23880597"/>
      <point x="408" y="426" type="qcurve" smooth="yes"/>
      <point x="228.895522388" y="488.686567164"/>
      <point x="49.0" y="632.089552239"/>
      <point x="49" y="750" type="qcurve" smooth="yes"/>
      <point x="49.0" y="855.223880597"/>
      <point x="197.328358209" y="988.52238806"/>
      <point x="313" y="993" type="qcurve"/>
      <point x="313" y="1004" type="line"/>
      <point x="241.358208955" y="1033.85074627"/>
      <point x="135.0" y="1149.23880597"/>
      <point x="135" y="1247" type="qcurve" smooth="yes"/>
      <point x="135.0" y="1360.43283582"/>
      <point x="299.731343284" y="1499.0"/>
      <point x="446" y="1499" type="qcurve" smooth="yes"/>
      <point x="556.447761194" y="1499.0"/>
      <point x="725.149253731" y="1442.49253731"/>
      <point x="805" y="1391" type="qcurve"/>
      <point x="735" y="1255" type="line"/>
      <point x="664.850746269" y="1302.76119403"/>
      <point x="516.388059701" y="1354.0"/>
      <point x="444" y="1354" type="qcurve" smooth="yes"/>
      <point x="376.835820896" y="1354.0"/>
      <point x="301.0" y="1293.74626866"/>
      <point x="301" y="1243" type="qcurve" smooth="yes"/>
      <point x="301.0" y="1187.7761194"/>
      <point x="389.194029851" y="1096.01492537"/>
    </contour>
    <contour>
      <point x="569" y="559" type="qcurve" smooth="yes"/>
      <point x="631.686567164" y="559.0"/>
      <point x="725.0" y="626.328358209"/>
      <point x="725" y="692" type="qcurve" smooth="yes"/>
      <point x="725.0" y="742.746268657"/>
      <point x="650.76119403" y="837.208955224"/>
      <point x="553" y="879" type="qcurve" smooth="yes"/>
      <point x="508.970149254" y="896.910447761"/>
      <point x="417.0" y="915.0"/>
      <point x="367" y="915" type="qcurve" smooth="yes"/>
      <point x="304.313432836" y="915.0"/>
      <point x="213.0" y="847.671641791"/>
      <point x="213" y="782" type="qcurve" smooth="yes"/>
      <point x="213.0" y="732.0"/>
      <point x="286.731343284" y="637.044776119"/>
      <point x="383" y="596" type="qcurve" smooth="yes"/>
      <point x="427.029850746" y="577.343283582"/>
      <point x="520.492537313" y="559.0"/>
    </contour>
  </outline>
</glyph>
<glyph name="dieresis" format="1">
  <advance width="806.912"/>
  <unicode hex="00A8"/>
  <outline>
    <contour>
      <point x="336" y="1378" type="line"/>
      <point x="336" y="1186" type="line"/>
      <point x="168" y="1186" type="line"/>
      <point x="168" y="1378" type="line"/>
    </contour>
    <contour>
      <point x="639" y="1378" type="line"/>
      <point x="639" y="1186" type="line"/>
      <point x="471" y="1186" type="line"/>
      <point x="471" y="1378" type="line"/>
    </contour>
  </outline>
</glyph>
<glyph name="ordfeminine" format="1">
  <advance width="606.208"/>
  <unicode hex="00AA"/>
  <outline>
    <contour>
      <point x="561" y="918" type="qcurve"/>
      <point x="561" y="852" type="line"/>
      <point x="484.880597015" y="850.507462687"/>
      <point x="397.925373134" y="898.47761194"/>
      <point x="383" y="944" type="qcurve"/>
      <point x="381" y="944" type="line"/>
      <point x="347.417910448" y="898.47761194"/>
      <point x="263.746268657" y="848.0"/>
      <point x="213" y="848" type="qcurve" smooth="yes"/>
      <point x="145.835820896" y="848.0"/>
      <point x="53.0" y="935.164179104"/>
      <point x="53" y="1018" type="qcurve" smooth="yes"/>
      <point x="53.0" y="1108.29850746"/>
      <point x="212.552238806" y="1223.53731343"/>
      <point x="373" y="1231" type="qcurve"/>
      <point x="373" y="1286" type="line" smooth="yes"/>
      <point x="373.0" y="1332.26865672"/>
      <point x="336.552238806" y="1378.0"/>
      <point x="297" y="1378" type="qcurve" smooth="yes"/>
      <point x="258.940298507" y="1378.0"/>
      <point x="176.76119403" y="1354.10447761"/>
      <point x="129" y="1325" type="qcurve"/>
      <point x="90" y="1413" type="line"/>
      <point x="143.731343284" y="1443.59701493"/>
      <point x="263.343283582" y="1485.0"/>
      <point x="332" y="1485" type="qcurve" smooth="yes"/>
      <point x="425.28358209" y="1485.0"/>
      <point x="512.0" y="1396.0"/>
      <point x="512" y="1296" type="qcurve" smooth="yes"/>
      <point x="512" y="983" type="line" smooth="yes"/>
      <point x="512.0" y="952.402985075"/>
      <point x="533.388059701" y="920.985074627"/>
    </contour>
    <contour>
      <point x="268" y="944" type="qcurve" smooth="yes"/>
      <point x="297.104477612" y="944.0"/>
      <point x="351.358208955" y="975.402985075"/>
      <point x="373" y="1006" type="qcurve"/>
      <point x="373" y="1163" type="line"/>
      <point x="273.746268657" y="1158.52238806"/>
      <point x="188.0" y="1082.74626866"/>
      <point x="188" y="1032" type="qcurve" smooth="yes"/>
      <point x="188.0" y="989.462686567"/>
      <point x="232.925373134" y="944.0"/>
    </contour>
    <contour>
      <point x="545" y="750" type="line"/>
      <point x="545" y="657" type="line"/>
      <point x="63" y="657" type="line"/>
      <point x="63" y="750" type="line"/>
    </contour>
  </outline>
</glyph>
<glyph name="uni00AE" format="1">
  <advance width="1343.488"/>
  <unicode hex="00AE"/>
  <outline>
    <contour>
      <point x="784" y="702" type="qcurve"/>
      <point x="954" y="326" type="line"/>
      <point x="809" y="326" type="line"/>
      <point x="657" y="672" type="line"/>
      <point x="594" y="672" type="line"/>
      <point x="594" y="326" type="line"/>
      <point x="457" y="326" type="line"/>
      <point x="457" y="1174" type="line"/>
      <point x="670" y="1174" type="line" smooth="yes"/>
      <point x="785.671641791" y="1174.0"/>
      <point x="930.0" y="1052.3880597"/>
      <point x="930" y="930" type="qcurve" smooth="yes"/>
      <point x="930.0" y="838.208955224"/>
      <point x="849.671641791" y="726.626865672"/>
    </contour>
    <contour>
      <point x="674" y="1499" type="qcurve" smooth="yes"/>
      <point x="936.686567164" y="1499.0"/>
      <point x="1280.0" y="1064.6119403"/>
      <point x="1280" y="737" type="qcurve" smooth="yes"/>
      <point x="1280.0" y="411.626865672"/>
      <point x="936.179104478" y="-25.0"/>
      <point x="672" y="-25" type="qcurve" smooth="yes"/>
      <point x="408.567164179" y="-25.0"/>
      <point x="66.0" y="410.134328358"/>
      <point x="66" y="737" type="qcurve" smooth="yes"/>
      <point x="66.0" y="1064.6119403"/>
      <point x="409.074626866" y="1499.0"/>
    </contour>
    <contour>
      <point x="674" y="37" type="qcurve" smooth="yes"/>
      <point x="915.044776119" y="37.0"/>
      <point x="1212.0" y="439.23880597"/>
      <point x="1212" y="737" type="qcurve" smooth="yes"/>
      <point x="1212.0" y="1034.01492537"/>
      <point x="913.044776119" y="1438.0"/>
      <point x="672" y="1438" type="qcurve" smooth="yes"/>
      <point x="430.208955224" y="1438.0"/>
      <point x="133.0" y="1035.50746269"/>
      <point x="133" y="737" type="qcurve" smooth="yes"/>
      <point x="133.0" y="440.731343284"/>
      <point x="430.71641791" y="37.0"/>
    </contour>
    <contour>
      <point x="662" y="774" type="line" smooth="yes"/>
      <point x="726.179104478" y="774.0"/>
      <point x="793.0" y="846.626865672"/>
      <point x="793" y="922" type="qcurve" smooth="yes"/>
      <point x="793.0" y="993.641791045"/>
      <point x="725.417910448" y="1067.0"/>
      <point x="659" y="1067" type="qcurve" smooth="yes"/>
      <point x="594" y="1067" type="line"/>
      <point x="594" y="774" type="line"/>
    </contour>
  </outline>
</glyph>
<glyph name="acute" format="1">
  <advance width="806.912"/>
  <unicode hex="00B4"/>
  <outline>
    <contour>
      <point x="381" y="1444" type="line"/>
      <point x="608" y="1444" type="line"/>
      <point x="373" y="1186" type="line"/>
      <point x="244" y="1186" type="line"/>
    </contour>
  </outline>
</glyph>
<glyph name="paragraph" format="1">
  <advance width="901.12"/>
  <unicode hex="00B6"/>
  <outline>
    <contour>
      <point x="786" y="1475" type="line"/>
      <point x="786" y="0" type="line"/>
      <point x="692" y="0" type="line"/>
      <point x="692" y="1378" type="line"/>
      <point x="530" y="1378" type="line"/>
      <point x="530" y="0" type="line"/>
      <point x="436" y="0" type="line"/>
      <point x="436" y="690" type="line"/>
      <point x="266.597014925" y="702.686567164"/>
      <point x="47.0" y="887.0"/>
      <point x="47" y="1087" type="qcurve" smooth="yes"/>
      <point x="47.0" y="1284.76119403"/>
      <point x="272.910447761" y="1475.0"/>
      <point x="455" y="1475" type="qcurve" smooth="yes"/>
    </contour>
  </outline>
</glyph>
<glyph name="ordmasculine" format="1">
  <advance width="602.112"/>
  <unicode hex="00BA"/>
  <outline>
    <contour>
      <point x="545" y="1184" type="qcurve" smooth="yes"/>
      <point x="545" y="1147" type="line" smooth="yes"/>
      <point x="545.0" y="1009.68656716"/>
      <point x="412.940298507" y="842.0"/>
      <point x="301" y="842" type="qcurve" smooth="yes"/>
      <point x="189.805970149" y="842.0"/>
      <point x="57.0" y="1009.68656716"/>
      <point x="57" y="1147" type="qcurve"/>
      <point x="55.5074626866" y="1148.49253731"/>
      <point x="55.5074626866" y="1182.50746269"/>
      <point x="57" y="1184" type="qcurve"/>
      <point x="57.0" y="1321.31343284"/>
      <point x="189.805970149" y="1487.0"/>
      <point x="301" y="1487" type="qcurve" smooth="yes"/>
      <point x="412.940298507" y="1487.0"/>
      <point x="545.0" y="1321.31343284"/>
    </contour>
    <contour>
      <point x="301" y="942" type="qcurve" smooth="yes"/>
      <point x="353.23880597" y="942.0"/>
      <point x="406.0" y="1044.2238806"/>
      <point x="406" y="1139" type="qcurve" smooth="yes"/>
      <point x="406" y="1190" type="line" smooth="yes"/>
      <point x="406.0" y="1283.28358209"/>
      <point x="353.23880597" y="1389.0"/>
      <point x="301" y="1389" type="qcurve" smooth="yes"/>
      <point x="248.76119403" y="1389.0"/>
      <point x="197.0" y="1285.28358209"/>
      <point x="197" y="1192" type="qcurve"/>
      <point x="195.507462687" y="1190.50746269"/>
      <point x="195.507462687" y="1142.49253731"/>
      <point x="197" y="1141" type="qcurve"/>
      <point x="197.0" y="1047.71641791"/>
      <point x="248.76119403" y="942.0"/>
    </contour>
    <contour>
      <point x="535" y="750" type="line"/>
      <point x="535" y="657" type="line"/>
      <point x="68" y="657" type="line"/>
      <point x="68" y="750" type="line"/>
    </contour>
  </outline>
</glyph>
<glyph name="Ccedilla" format="1">
  <advance width="952.32"/>
  <unicode hex="00C7"/>
  <outline>
    <contour>
      <point x="713" y="489" type="qcurve"/>
      <point x="903" y="444" type="line"/>
      <point x="872.402985075" y="229.074626866"/>
      <point x="693.134328358" y="-16.7910447761"/>
      <point x="520" y="-25" type="qcurve"/>
      <point x="481" y="-88" type="line"/>
      <point x="498.164179104" y="-82.0298507463"/>
      <point x="535.865671642" y="-76.0"/>
      <point x="559" y="-76" type="qcurve" smooth="yes"/>
      <point x="617.208955224" y="-76.0"/>
      <point x="688.0" y="-128.0"/>
      <point x="688" y="-178" type="qcurve" smooth="yes"/>
      <point x="688.0" y="-263.820895522"/>
      <point x="498.014925373" y="-346.47761194"/>
      <point x="301" y="-342" type="qcurve"/>
      <point x="301" y="-291" type="line"/>
      <point x="451.0" y="-289.507462687"/>
      <point x="569.0" y="-243.059701493"/>
      <point x="569" y="-205" type="qcurve" smooth="yes"/>
      <point x="569.0" y="-183.358208955"/>
      <point x="539.104477612" y="-160.0"/>
      <point x="510" y="-160" type="qcurve" smooth="yes"/>
      <point x="485.373134328" y="-160.0"/>
      <point x="441.641791045" y="-169.552238806"/>
      <point x="420" y="-180" type="qcurve"/>
      <point x="375" y="-147" type="line"/>
      <point x="453" y="-23" type="line"/>
      <point x="278.373134328" y="-5.83582089552"/>
      <point x="72.0" y="338.731343284"/>
      <point x="72" y="635" type="qcurve" smooth="yes"/>
      <point x="72" y="838" type="line" smooth="yes"/>
      <point x="72.0" y="1152.92537313"/>
      <point x="303.462686567" y="1499.0"/>
      <point x="496" y="1499" type="qcurve" smooth="yes"/>
      <point x="678.835820896" y="1499.0"/>
      <point x="866.402985075" y="1256.97014925"/>
      <point x="897" y="1051" type="qcurve"/>
      <point x="700" y="1001" type="line"/>
      <point x="679.104477612" y="1172.64179104"/>
      <point x="585.552238806" y="1339.0"/>
      <point x="496" y="1339" type="qcurve" smooth="yes"/>
      <point x="385.552238806" y="1339.0"/>
      <point x="283.0" y="1071.70149254"/>
      <point x="283" y="862" type="qcurve" smooth="yes"/>
      <point x="283" y="614" type="line" smooth="yes"/>
      <point x="283.0" y="400.567164179"/>
      <point x="391.552238806" y="135.0"/>
      <point x="502" y="135" type="qcurve" smooth="yes"/>
      <point x="590.805970149" y="135.0"/>
      <point x="686.880597015" y="306.164179104"/>
    </contour>
  </outline>
</glyph>
<glyph name="Eth" format="1">
  <advance width="1062.912"/>
  <unicode hex="00D0"/>
  <outline>
    <contour>
      <point x="991" y="831" type="qcurve" smooth="yes"/>
      <point x="991" y="645" type="line" smooth="yes"/>
      <point x="991.0" y="331.567164179"/>
      <point x="721.328358209" y="0.0"/>
      <point x="487" y="0" type="qcurve" smooth="yes"/>
      <point x="162" y="0" type="line"/>
      <point x="162" y="688" type="line"/>
      <point x="39" y="688" type="line"/>
      <point x="39" y="846" type="line"/>
      <point x="162" y="846" type="line"/>
      <point x="162" y="1475" type="line"/>
      <point x="494" y="1475" type="line" smooth="yes"/>
      <point x="727.582089552" y="1475.0"/>
      <point x="991.0" y="1142.94029851"/>
    </contour>
    <contour>
      <point x="483" y="156" type="line" smooth="yes"/>
      <point x="627.029850746" y="156.0"/>
      <point x="780.0" y="385.820895522"/>
      <point x="780" y="600" type="qcurve" smooth="yes"/>
      <point x="780" y="872" type="line" smooth="yes"/>
      <point x="780.0" y="1087.67164179"/>
      <point x="627.0" y="1319.0"/>
      <point x="477" y="1319" type="qcurve" smooth="yes"/>
      <point x="373" y="1319" type="line"/>
      <point x="373" y="846" type="line"/>
      <point x="547" y="846" type="line"/>
      <point x="547" y="688" type="line"/>
      <point x="373" y="688" type="line"/>
      <point x="373" y="156" type="line"/>
    </contour>
  </outline>
</glyph>
<glyph name="germandbls" format="1">
  <advance width="987.136"/>
  <unicode hex="00DF"/>
  <outline>
    <contour>
      <point x="635" y="842" type="line"/>
      <point x="755.895522388" y="795.731343284"/>
      <point x="934.0" y="571.059701493"/>
      <point x="934" y="383" type="qcurve" smooth="yes"/>
      <point x="934.0" y="185.985074627"/>
      <point x="755.552238806" y="-18.0"/>
      <point x="616" y="-18" type="qcurve" smooth="yes"/>
      <point x="538.388059701" y="-18.0"/>
      <point x="444.059701493" y="28.6865671642"/>
      <point x="406" y="66" type="qcurve"/>
      <point x="440" y="201" type="line"/>
      <point x="467.611940299" y="168.910447761"/>
      <point x="530.23880597" y="127.0"/>
      <point x="578" y="127" type="qcurve" smooth="yes"/>
      <point x="642.179104478" y="127.0"/>
      <point x="737.0" y="256.134328358"/>
      <point x="737" y="383" type="qcurve" smooth="yes"/>
      <point x="737.0" y="546.432835821"/>
      <point x="585.52238806" y="749.880597015"/>
      <point x="440" y="776" type="qcurve"/>
      <point x="440" y="907" type="line"/>
      <point x="542.985074627" y="915.208955224"/>
      <point x="641.0" y="1074.53731343"/>
      <point x="641" y="1182" type="qcurve" smooth="yes"/>
      <point x="641.0" y="1281.25373134"/>
      <point x="559.328358209" y="1417.0"/>
      <point x="475" y="1417" type="qcurve" smooth="yes"/>
      <point x="383.208955224" y="1417.0"/>
      <point x="301.0" y="1272.82089552"/>
      <point x="301" y="1137" type="qcurve" smooth="yes"/>
      <point x="301" y="0" type="line"/>
      <point x="94" y="0" type="line"/>
      <point x="94" y="1112" type="line" smooth="yes"/>
      <point x="94.0" y="1333.64179104"/>
      <point x="307.089552239" y="1554.0"/>
      <point x="475" y="1554" type="qcurve" smooth="yes"/>
      <point x="641.417910448" y="1554.0"/>
      <point x="834.0" y="1351.97014925"/>
      <point x="834" y="1196" type="qcurve" smooth="yes"/>
      <point x="834.0" y="1054.20895522"/>
      <point x="708.134328358" y="884.597014925"/>
      <point x="635" y="854" type="qcurve"/>
    </contour>
  </outline>
</glyph>
<glyph name="lslash" format="1">
  <advance width="571.392"/>
  <unicode hex="0142"/>
  <outline>
    <contour>
      <point x="532" y="971" type="line"/>
      <point x="532" y="797" type="line"/>
      <point x="389" y="721" type="line"/>
      <point x="389" y="0" type="line"/>
      <point x="182" y="0" type="line"/>
      <point x="182" y="635" type="line"/>
      <point x="41" y="561" type="line"/>
      <point x="41" y="735" type="line"/>
      <point x="182" y="809" type="line"/>
      <point x="182" y="1509" type="line"/>
      <point x="389" y="1554" type="line"/>
      <point x="389" y="895" type="line"/>
    </contour>
  </outline>
</glyph>
<glyph name="circumflex" format="1">
  <advance width="806.912"/>
  <unicode hex="02C6"/>
  <outline>
    <contour>
      <point x="483" y="1444" type="line"/>
      <point x="655" y="1180" type="line"/>
      <point x="561" y="1180" type="line"/>
      <point x="403" y="1331" type="line"/>
      <point x="246" y="1180" type="line"/>
      <point x="152" y="1180" type="line"/>
      <point x="326" y="1444" type="line"/>
    </contour>
  </outline>
</glyph>
<glyph name="ogonek" format="1">
  <advance width="806.912"/>
  <unicode hex="02DB"/>
  <outline>
    <contour>
      <point x="590" y="-221" type="qcurve"/>
      <point x="614" y="-279" type="line"/>
      <point x="562.507462687" y="-307.358208955"/>
      <point x="457.208955224" y="-340.0"/>
      <point x="399" y="-340" type="qcurve" smooth="yes"/>
      <point x="319.895522388" y="-340.0"/>
      <point x="227.0" y="-269.179104478"/>
      <point x="227" y="-205" type="qcurve" smooth="yes"/>
      <point x="227.0" y="-146.791044776"/>
      <point x="315.358208955" y="-41.0447761194"/>
      <point x="387" y="0" type="qcurve"/>
      <point x="473" y="0" type="line"/>
      <point x="410.313432836" y="-49.2537313433"/>
      <point x="354.0" y="-138.447761194"/>
      <point x="354" y="-178" type="qcurve" smooth="yes"/>
      <point x="354.0" y="-211.582089552"/>
      <point x="401.940298507" y="-254.0"/>
      <point x="440" y="-254" type="qcurve" smooth="yes"/>
      <point x="476.567164179" y="-254.0"/>
      <point x="546.71641791" y="-238.164179104"/>
    </contour>
  </outline>
</glyph>
<glyph name="tilde" format="1">
  <advance width="806.912"/>
  <unicode hex="02DC"/>
  <outline>
    <contour>
      <point x="580" y="1397" type="qcurve"/>
      <point x="670" y="1397" type="line"/>
      <point x="672.985074627" y="1288.04477612"/>
      <point x="603.373134328" y="1186.0"/>
      <point x="528" y="1186" type="qcurve" smooth="yes"/>
      <point x="454.865671642" y="1186.0"/>
      <point x="334.52238806" y="1272.0"/>
      <point x="289" y="1272" type="qcurve" smooth="yes"/>
      <point x="256.910447761" y="1272.0"/>
      <point x="227.0" y="1232.53731343"/>
      <point x="227" y="1190" type="qcurve"/>
      <point x="139" y="1190" type="line"/>
      <point x="134.52238806" y="1296.71641791"/>
      <point x="205.119402985" y="1401.0"/>
      <point x="279" y="1401" type="qcurve" smooth="yes"/>
      <point x="353.626865672" y="1401.0"/>
      <point x="472.47761194" y="1315.0"/>
      <point x="518" y="1315" type="qcurve" smooth="yes"/>
      <point x="548.597014925" y="1315.0"/>
      <point x="580.0" y="1353.71641791"/>
    </contour>
  </outline>
</glyph>
<glyph name="hungarumlaut" format="1">
  <advance width="806.912"/>
  <unicode hex="02DD"/>
  <outline>
    <contour>
      <point x="219" y="1444" type="line"/>
      <point x="428" y="1444" type="line"/>
      <point x="193" y="1186" type="line"/>
      <point x="82" y="1186" type="line"/>
    </contour>
    <contour>
      <point x="528" y="1444" type="line"/>
      <point x="737" y="1444" type="line"/>
      <point x="506" y="1186" type="line"/>
      <point x="391" y="1186" type="line"/>
    </contour>
  </outline>
</glyph>
<glyph name="emdash" format="1">
  <advance width="1632.256"/>
  <unicode hex="2014"/>
  <outline>
    <contour>
      <point x="1575" y="664" type="line"/>
      <point x="1575" y="502" type="line"/>
      <point x="57" y="502" type="line"/>
      <point x="57" y="664" type="line"/>
    </contour>
  </outline>
</glyph>
<glyph name="quotedblright" format="1">
  <advance width="671.744"/>
  <unicode hex="201D"/>
  <outline>
    <contour>
      <point x="123" y="1475" type="line"/>
      <point x="317" y="1475" type="line"/>
      <point x="150" y="1010" type="line"/>
      <point x="63" y="1010" type="line"/>
    </contour>
    <contour>
      <point x="428" y="1475" type="line"/>
      <point x="625" y="1475" type="line"/>
      <point x="457" y="1010" type="line"/>
      <point x="371" y="1010" type="line"/>
    </contour>
  </outline>
</glyph>
<glyph name="quotedblbase" format="1">
  <advance width="671.744"/>
  <unicode hex="201E"/>
  <outline>
    <contour>
      <point x="109" y="240" type="line"/>
      <point x="303" y="240" type="line"/>
      <point x="137" y="-225" type="line"/>
      <point x="51" y="-225" type="line"/>
    </contour>
    <contour>
      <point x="416" y="240" type="line"/>
      <point x="610" y="240" type="line"/>
      <point x="442" y="-225" type="line"/>
      <point x="356" y="-225" type="line"/>
    </contour>
  </outline>
</glyph>
<glyph name="ellipsis" format="1">
  <advance width="1120.256"/>
  <unicode hex="2026"/>
  <outline>
    <contour>
      <point x="180" y="215" type="qcurve" smooth="yes"/>
      <point x="230.746268657" y="215.0"/>
      <point x="295.0" y="149.253731343"/>
      <point x="295" y="100" type="qcurve" smooth="yes"/>
      <point x="295.0" y="51.4925373134"/>
      <point x="230.746268657" y="-14.0"/>
      <point x="180" y="-14" type="qcurve" smooth="yes"/>
      <point x="131.492537313" y="-14.0"/>
      <point x="68.0" y="51.4925373134"/>
      <point x="68" y="100" type="qcurve" smooth="yes"/>
      <point x="68.0" y="149.253731343"/>
      <point x="131.492537313" y="215.0"/>
    </contour>
    <contour>
      <point x="559" y="215" type="qcurve" smooth="yes"/>
      <point x="608.253731343" y="215.0"/>
      <point x="674.0" y="149.253731343"/>
      <point x="674" y="100" type="qcurve" smooth="yes"/>
      <point x="674.0" y="51.4925373134"/>
      <point x="608.253731343" y="-14.0"/>
      <point x="559" y="-14" type="qcurve" smooth="yes"/>
      <point x="510.492537313" y="-14.0"/>
      <point x="446.0" y="51.4925373134"/>
      <point x="446" y="100" type="qcurve" smooth="yes"/>
      <point x="446.0" y="149.253731343"/>
      <point x="510.492537313" y="215.0"/>
    </contour>
    <contour>
      <point x="938" y="215" type="qcurve" smooth="yes"/>
      <point x="987.253731343" y="215.0"/>
      <point x="1053.0" y="149.253731343"/>
      <point x="1053" y="100" type="qcurve" smooth="yes"/>
      <point x="1053.0" y="51.4925373134"/>
      <point x="987.253731343" y="-14.0"/>
      <point x="938" y="-14" type="qcurve" smooth="yes"/>
      <point x="888.746268657" y="-14.0"/>
      <point x="825.0" y="51.4925373134"/>
      <point x="825" y="100" type="qcurve" smooth="yes"/>
      <point x="825.0" y="149.253731343"/>
      <point x="888.746268657" y="215.0"/>
    </contour>
  </outline>
</glyph>
<glyph name="guilsinglleft" format="1">
  <advance width="452.608"/>
  <unicode hex="2039"/>
  <outline>
    <contour>
      <point x="231" y="537" type="line"/>
      <point x="399" y="152" type="line"/>
      <point x="291" y="152" type="line"/>
      <point x="31" y="537" type="line"/>
      <point x="291" y="922" type="line"/>
      <point x="399" y="922" type="line"/>
    </contour>
  </outline>
</glyph>
<glyph name="guilsinglright" format="1">
  <advance width="442.368"/>
  <unicode hex="203A"/>
  <outline>
    <contour>
      <point x="162" y="922" type="line"/>
      <point x="424" y="537" type="line"/>
      <point x="162" y="152" type="line"/>
      <point x="53" y="152" type="line"/>
      <point x="223" y="537" type="line"/>
      <point x="53" y="922" type="line"/>
    </contour>
  </outline>
</glyph>
<glyph name="radical" format="1">
  <advance width="974.848"/>
  <unicode hex="221A"/>
  <outline>
    <contour>
      <point x="723" y="1475" type="line"/>
      <point x="936" y="1475" type="line"/>
      <point x="539" y="-6" type="line"/>
      <point x="297" y="-6" type="line"/>
      <point x="47" y="696" type="line"/>
      <point x="252" y="696" type="line"/>
      <point x="414" y="190" type="line"/>
    </contour>
  </outline>
</glyph>
